<svg xmlns="http://www.w3.org/2000/svg" width="69" height="95"><path d="M10.394 86.11a4.45 4.45 0 0 0-4.455 4.445A4.45 4.45 0 0 0 10.394 95a4.45 4.45 0 0 0 4.454-4.445 4.45 4.45 0 0 0-4.454-4.445zm23.757 0a4.45 4.45 0 0 0-4.455 4.445A4.45 4.45 0 0 0 34.151 95a4.45 4.45 0 0 0 4.454-4.445 4.45 4.45 0 0 0-4.454-4.445zm23.757 0a4.45 4.45 0 0 0-4.455 4.445A4.45 4.45 0 0 0 57.908 95a4.45 4.45 0 0 0 4.454-4.445 4.45 4.45 0 0 0-4.454-4.445zm-1.485-35.56c0 1.636-1.369 2.964-2.97 2.964H14.848c-1.6 0-2.97-1.328-2.97-2.964v-2.963c0-1.635 1.37-2.963 2.97-2.963h38.605c1.601 0 2.97 1.328 2.97 2.963v2.963zM17.818 3.138h32.666c1.6 0 2.97 1.328 2.97 2.963l-2.97 35.56H17.818L14.848 6.1c0-1.635 1.369-2.963 2.97-2.963zm41.574 26.67v2.963h2.97v14.816c0 2.405-1.449 4.471-3.516 5.4a5.79 5.79 0 0 0 .546-2.437v-2.963c0-3.273-2.726-5.926-5.939-5.926l2.97-35.56c0-3.273-2.726-5.927-5.94-5.927H17.819c-3.214 0-5.94 2.654-5.94 5.927l2.97 35.56c-3.213 0-5.94 2.653-5.94 5.926v2.963c0 .871.203 1.692.548 2.437-2.069-.929-3.517-2.995-3.517-5.4V32.771h2.97v-2.964H0v2.964h2.97v14.816c0 4.91 3.989 8.89 8.908 8.89h17.818l1.485 5.927h1.485v10.393c-12.744.217-23.757 3.26-23.757 10.35h2.97c0-4.69 9.542-7.185 20.787-7.388v7.388h2.97v-7.388c11.244.203 20.787 2.697 20.787 7.388h2.97c0-7.09-11.014-10.133-23.758-10.35V62.404h1.485l1.485-5.927h17.818c4.92 0 8.909-3.98 8.909-8.89V32.771h2.97v-2.964h-8.91z" fill="#fefefe"></path></svg>