<?xml version="1.0" encoding="iso-8859-1"?>
<!-- Generator: Adobe Illustrator 19.0.0, SVG Export Plug-In . SVG Version: 6.00 Build 0)  -->
<svg version="1.1" id="Capa_1" xmlns="http://www.w3.org/2000/svg" xmlns:xlink="http://www.w3.org/1999/xlink" x="0px" y="0px"
	 viewBox="0 0 511.999 511.999" style="enable-background:new 0 0 511.999 511.999;" xml:space="preserve" fill="#fefefe">
<g>
	<g>
		<path d="M265.81,248.697c-0.13-0.64-0.33-1.27-0.58-1.87c-0.25-0.6-0.56-1.18-0.92-1.73c-0.359-0.54-0.779-1.05-1.24-1.52
			c-0.46-0.46-0.97-0.87-1.52-1.24c-0.54-0.36-1.12-0.67-1.72-0.92c-0.61-0.25-1.24-0.44-1.88-0.57c-1.29-0.26-2.61-0.26-3.9,0
			c-0.64,0.13-1.269,0.32-1.87,0.57c-0.611,0.25-1.19,0.56-1.73,0.92c-0.55,0.37-1.06,0.78-1.52,1.24
			c-0.46,0.47-0.88,0.98-1.24,1.52c-0.37,0.55-0.67,1.13-0.92,1.73c-0.25,0.6-0.45,1.23-0.569,1.87c-0.131,0.65-0.2,1.3-0.2,1.96
			c0,0.65,0.069,1.3,0.2,1.95c0.119,0.64,0.319,1.27,0.569,1.87s0.55,1.18,0.92,1.73c0.36,0.54,0.78,1.06,1.24,1.52
			c0.459,0.46,0.969,0.88,1.52,1.24c0.541,0.36,1.12,0.67,1.73,0.92c0.6,0.25,1.23,0.44,1.87,0.57c0.639,0.13,1.3,0.2,1.95,0.2
			c0.649,0,1.309-0.07,1.95-0.2c0.64-0.13,1.27-0.32,1.88-0.57c0.6-0.25,1.18-0.56,1.72-0.92c0.55-0.36,1.06-0.78,1.52-1.24
			c0.461-0.46,0.881-0.98,1.24-1.52c0.36-0.55,0.67-1.13,0.92-1.73c0.25-0.6,0.45-1.23,0.58-1.87c0.13-0.65,0.19-1.3,0.19-1.95
			C266,249.997,265.94,249.347,265.81,248.697z"/>
	</g>
</g>
<g>
	<g>
		<path d="M510.782,178.241l-49.339-90.6c-1.262-2.316-3.322-3.952-5.673-4.722l-196.596-65.8c-2.061-0.69-4.287-0.69-6.348,0
			L56.315,82.891c-2.386,0.758-4.481,2.406-5.758,4.75l-49.339,90.6c-1.368,2.513-1.595,5.492-0.622,8.183
			c0.974,2.691,3.053,4.836,5.712,5.893l43.031,17.097v202.094c0,4.166,2.583,7.896,6.483,9.361l196.661,73.885
			c0.003,0.001,0.005,0.002,0.008,0.003c0.066,0.025,0.131,0.048,0.197,0.072c0.024,0.009,0.049,0.017,0.073,0.025
			c0.04,0.014,0.08,0.027,0.121,0.041c0.038,0.012,0.075,0.024,0.112,0.036c0.023,0.007,0.047,0.015,0.07,0.022
			c0.049,0.015,0.098,0.03,0.148,0.044c0.004,0.001,0.008,0.002,0.013,0.004c0.921,0.267,1.853,0.396,2.773,0.396
			c1.212,0,2.402-0.222,3.516-0.641c0.001,0,0.002-0.001,0.003-0.001l196.661-73.885c3.9-1.465,6.483-5.195,6.483-9.361V209.414
			l43.031-17.097c2.659-1.057,4.738-3.202,5.712-5.893C512.377,183.733,512.15,180.754,510.782,178.241z M256,37.147l167.132,55.939
			L256,157.489L88.868,93.086L256,37.147z M24.178,177.898l39.749-72.989l177.329,68.333l-44.398,73.262L24.178,177.898z
			 M442.662,404.583L266,470.954V287.833c0-5.523-4.477-10-10-10s-10,4.477-10,10v183.121L69.339,404.583V217.36l127.995,50.853
			c1.205,0.479,2.455,0.708,3.689,0.708c3.411,0,6.696-1.752,8.555-4.819L256,187.5l46.422,76.602
			c1.858,3.067,5.143,4.819,8.555,4.819c1.234,0,2.484-0.229,3.689-0.708l127.995-50.853v37.166l-100.184,39.498
			c-3.82,1.506-6.332,5.196-6.332,9.303v73.615c0,3.31,1.638,6.405,4.373,8.267c1.684,1.146,3.648,1.733,5.628,1.733
			c1.238,0,2.482-0.23,3.667-0.697l92.849-36.606V404.583z M442.661,276.024v52.117l-86.517,34.109v-52.117L442.661,276.024z
			 M315.141,246.503l-44.397-73.262l177.329-68.333l39.748,72.988L315.141,246.503z"/>
	</g>
</g>
<g>
</g>
<g>
</g>
<g>
</g>
<g>
</g>
<g>
</g>
<g>
</g>
<g>
</g>
<g>
</g>
<g>
</g>
<g>
</g>
<g>
</g>
<g>
</g>
<g>
</g>
<g>
</g>
<g>
</g>
</svg>
